<svg xmlns="http://www.w3.org/2000/svg" viewBox="0 0 193.74 204.69"><defs><style>.cls-1{fill:#fff;}</style></defs><g id="レイヤー_2" data-name="レイヤー 2"><g id="レイヤー_3" data-name="レイヤー 3"><path class="cls-1" d="M111.68,204.69c-13.42,0-13.42-1.22-26.84-1.22-13,0-22.74-2.12-22.74-7.77-.82-28.41-2.75-28.42-1.62-56.82.9-22.47.92-22.62,4.64-44.79,2.79-6.87,3.12-11.7,18.57-19.59,10.6-2.25,11,.46,21.82.46,7.4,0,18.77,13.81,18.77,19.46,2,19.17,4.9,18.89,6.5,38.11,2.59,31.13,2,31.2,3.72,62.39C134.5,200.57,119.09,204.69,111.68,204.69Z"/><polygon class="cls-1" points="109.09 30.22 104.23 32.51 106.18 36.91 102.67 38.62 101.41 41.43 98.67 43.52 100.1 48.8 95.59 46.58 93.67 50.87 90.68 50.34 87.83 50.45 84.82 49.86 82.3 51.48 79.31 52.12 76.71 50.49 73.51 51.45 71.02 50.26 69.32 46.72 65.6 49.24 63.45 47.03 62.81 42.8 57.93 44.27 56.18 42.2 54.7 39.92 54.46 36.64 53.79 33.7 51.19 32.31 51.48 30.29 51.98 28.91 52.44 25.82 53.97 23.56 54.41 20.45 57.57 19.46 61.38 18.98 60.88 14.93 64.13 14.75 66.69 11.53 69.93 12.09 73.16 12.57 76.59 14.22 79.36 9.59 82.83 10.18 85.07 14.98 88.31 14.39 91.69 13.05 94.61 14.24 99.09 13.1 98.14 18.47 102.74 19.05 103.31 22.12 104.39 24.88 105.19 27.8 109.09 30.22"/><polygon class="cls-1" points="95.74 54.03 91.19 55.15 91.1 58.66 88.8 60.75 90.06 65.13 88.31 67.59 85.24 69.2 82.56 69.67 79.55 67.17 77.39 72.32 74.28 68.96 71.78 71.05 68.95 70.2 66.35 69.89 63.83 69.77 60.98 70.73 57.99 72.77 55.68 69.67 52.99 69.43 49.96 71.72 48.4 67.68 47.7 65.41 44.6 63.91 41.62 62.35 40.92 59.38 41.38 55.71 36.85 53.94 39.81 51.58 43.01 50.82 42.45 46.85 44.23 44.88 49.06 45.52 49.38 42.63 52.43 43.42 54.37 39 58.31 42.24 60.31 38.03 63.06 36.7 66.23 36.43 69.01 38.92 71.83 37.23 74.66 35.41 77.24 39.04 80.12 36.04 82.75 38.59 85.47 38.35 88.03 40.32 90.23 42.57 89.73 46.45 93.96 47.48 93.96 50.98 95.74 54.03"/><polygon class="cls-1" points="127.75 46.59 130.63 47.73 130.07 52.09 134.84 51.59 132.96 57.15 134.35 59.74 140.39 58.09 141.15 61.44 140.97 64.71 136.36 66.87 139.27 70.69 137.94 73.27 135.81 70.11 131.87 76.18 129.44 72.87 126.24 74.37 123.38 73.72 120.5 73.15 118.39 67.35 115.22 69.16 112.29 69.53 109.48 68.74 106.86 66.25 103.5 70.48 100.6 70.5 98.19 66.47 94.7 70.95 92.45 67.49 89.92 65.72 87.04 66.17 84.79 62.67 81.31 66.83 78.49 66.87 74.76 66.15 73.63 62.34 74.49 58.73 69.78 57.35 74.57 52.17 70.84 50.4 67.72 48.37 66.71 44.82 70.72 43.48 72.42 41.4 72.73 38.35 76.94 38.02 76.33 34.32 76.18 30.94 78.4 28.96 82.65 30.47 84.33 27.04 87.52 26.75 89.88 24.73 91.83 21.85 95.01 21.54 97.73 18.28 100.98 20.61 103.2 23.29 105.26 26.43 108.41 26.54 112.14 25.06 115 26 115.52 29.97 119.74 29.98 118.41 34.12 121.97 35.75 122.61 38.88 124.82 41.21 124.68 44.85 127.75 46.59"/><polygon class="cls-1" points="57.91 57.28 53.16 59.34 54.93 63.59 51.51 65.06 50.22 67.67 47.53 69.52 48.72 74.66 44.1 72.42 41.78 76.63 38.52 76.13 35.38 76.26 32.09 75.69 29.02 77.32 25.91 76.37 23.24 74.76 19.79 75.64 17 74.42 14.93 70.9 10.4 73.01 8.97 69.39 9.89 64.64 4.37 65.44 2.36 63.22 0.59 60.78 0 57.35 2.9 55.9 3.99 52.87 7.37 51.8 8.64 48.93 9.45 45.66 11.39 43.13 14.23 41.12 17.41 42.46 20.72 44.6 23.18 41.35 26.16 41.29 29.07 38.2 32.2 39.78 34.93 41.26 37.47 43.86 41.01 40.39 43.91 40.86 45.48 45.21 47.41 46.33 50.49 47.56 51.51 50.17 54.79 51.27 53.39 55.88 57.91 57.28"/><polygon class="cls-1" points="180.18 39.42 176.04 41.66 177.36 45.63 174.31 47.39 173.05 50.06 170.94 51.75 168.95 55.24 165.31 53.21 162.88 56.84 159.62 56.58 156.22 56.86 153.39 54.92 150.22 54.77 147.32 53.82 144.6 52.29 140.78 52.6 138.72 49.76 138.56 45.98 134.42 45.46 133.38 42.39 134.42 39.48 132.78 36.1 134.63 33.7 136.71 31.46 139.78 30.02 142.21 28.56 144.6 27.28 147.79 28.32 150.58 27.1 153.3 25.38 156.27 24.72 159.47 24.01 162.11 26.02 164.63 28.67 167.96 26.88 170.81 27.73 174.15 28.91 174.88 31.74 175.66 34.54 175.85 38.1 180.18 39.42"/><polygon class="cls-1" points="80.43 24.87 76.11 26.85 77.72 30.72 74.61 32.04 73.43 34.41 70.98 36.08 72.05 40.75 67.86 38.71 65.75 42.53 62.79 42.07 59.94 42.18 56.96 41.67 54.17 43.14 51.34 42.28 48.92 40.82 45.79 41.63 43.26 40.52 41.37 37.32 37.26 39.24 35.95 35.97 36.78 31.64 31.77 32.4 29.93 30.38 28.32 28.17 27.78 25.06 30.42 23.75 31.41 21 34.49 20.04 35.65 17.43 36.39 14.47 38.16 12.17 40.74 10.35 43.63 11.58 46.63 13.53 48.87 10.57 51.57 10.53 54.22 7.72 57.06 9.15 59.54 10.49 61.85 12.86 65.06 9.7 67.69 10.11 69.06 14.04 71.16 15.49 74.24 17.01 75.45 19.79 78.29 20.72 80.43 24.87"/><polygon class="cls-1" points="149.07 20.82 145.13 23 146.41 26.8 143.5 28.53 142.32 31.11 140.3 32.76 138.41 36.1 134.9 34.19 132.58 37.67 129.44 37.45 126.18 37.74 123.45 35.87 120.42 35.7 117.63 34.78 115.02 33.3 111.35 33.57 109.39 30.82 109.26 27.19 105.3 26.64 104.33 23.68 105.34 20.87 103.75 17.62 105.51 15.29 107.48 13.13 110.41 11.71 112.73 10.27 115.03 9.03 118.09 10.01 120.77 8.83 123.37 7.16 126.22 6.52 129.3 5.86 131.82 7.79 134.24 10.35 137.44 8.66 140.18 9.49 143.37 10.66 144.05 13.39 144.78 16.09 144.94 19.52 149.07 20.82"/><polygon class="cls-1" points="162.07 49.89 158.08 51.91 159.26 55.68 156.33 57.23 155.09 59.69 153.04 61.19 151.15 64.48 147.75 62.48 145.44 65.89 142.38 65.59 139.2 65.79 136.53 64 133.56 63.91 130.82 63.05 128.25 61.64 124.67 62.01 122.67 59.41 122.44 55.85 118.5 55.51 117.46 52.65 118.39 49.94 116.89 46.78 118.7 44.58 120.71 42.55 123.65 41.3 125.99 40.01 128.26 38.83 131.23 39.89 133.88 38.77 136.45 37.18 139.25 36.6 142.24 35.87 144.75 37.73 147.15 40.22 150.25 38.45 152.95 39.21 156.14 40.19 156.88 42.81 157.68 45.41 157.93 48.75 162.07 49.89"/><polygon class="cls-1" points="118.12 11.89 113.68 12.87 112.81 16.57 109.54 16.91 107.25 18.64 104.31 19.45 103.49 23.24 99.8 23.02 97.84 27.13 94.69 24.49 92.35 22.54 90.28 20.17 87.36 19.1 84.82 17.43 82.57 15.34 79.31 14.76 76.36 11.9 80.45 11.02 81.76 7.45 84.78 6.79 88.66 7.6 89.53 3.27 92.04 1.74 94.67 0.4 97.84 0 99.68 2.23 102.43 3.05 104.05 5.66 106.72 6.62 109.61 7.23 112.02 8.61 114.77 9.12 118.12 11.89"/><polygon class="cls-1" points="192.35 54.09 193.74 57.39 191.03 59.19 188.76 61.26 187.26 63.78 185.92 66.41 185.25 69.91 182.06 71.06 179.06 68.92 176.34 70.74 173.32 68.38 170.68 71.4 167.78 68.97 164.92 70.69 161.95 72.05 159.35 70.44 156.79 68.4 154.07 67.67 150.62 69.19 150.68 65.7 150.21 63 148.93 60.67 147.11 58.6 146.09 56.16 143.87 53.98 145.53 51.2 146.24 48.12 148.26 45.81 150.51 43.62 150.67 39.36 155.01 41.9 157.75 41.6 160.43 41.07 162.72 39.1 165.67 39.58 167.74 38.84 170.44 37.21 173.11 37.73 175.62 38.83 178.58 38.31 180.71 40.81 184.67 39.28 183.79 44.41 187.62 44.86 187.56 48.45 192.22 48.22 193.74 51.13 192.35 54.09"/><path class="cls-1" d="M108.32,83.93l5-.17h.28l5.09.33-2,.93,4.22-4.75.54-.61.59-.13,4.77-1,.28-.06h.09l5-.08-1,.43,4.08-3.32.72-.59.72.32L143.06,78l-1,.13,4.3-2.88-.2.23L149,71.19c.48-.72,1-1.41,1.51-2.11l1.53-2.1,0,0h0L156.44,64l-4,3.36.06-.07-1.3,2.23c-.43.75-.89,1.48-1.29,2.25l-2.41,4.57,0,.11-.16.12-4,3.31-.4.33L142.3,80l-6.58-2.19,1.44-.26-3.71,3.71-.35.36-.66.07-5,.58.38-.06-4.65,1.5,1.13-.74-3.71,5.15-.64.88-1.34,0-5.1.19h.27l-4.94.67Z"/><polygon class="cls-1" points="113.82 78.77 119.02 77.94 124.14 76.77 122.9 77.72 126.32 73.09 126.54 72.81 126.61 72.75 130.5 69.54 134.23 66.16 133.93 66.71 135.37 61.73 135.45 61.45 135.58 61.33 140.09 57.42 139.98 57.69 140.39 52.26 140.74 57.7 140.75 57.82 140.63 57.96 136.7 62.46 136.92 62.06 136.19 67.2 136.15 67.44 135.89 67.75 132.62 71.68 129.17 75.44 129.46 75.09 126.7 80.15 126.38 80.74 125.46 81.09 120.38 83.02 115.17 84.61 113.82 78.77"/><polygon class="cls-1" points="101.33 80.25 96.79 78.18 96.31 77.96 96.23 77.9 92.26 74.76 93.03 75.08 87.68 73.54 87.13 73.38 86.91 73.17 83.15 69.49 82.96 69.3 82.94 69.26 80.15 64.78 80.24 64.88 76.73 60.73 76.55 60.52 76.61 60.32 78.2 54.96 77.49 60.51 77.37 60.1 81.5 63.62 81.58 63.72 85.05 67.7 84.83 67.47 89.14 70.5 88.37 70.13 93.9 70.79 94.16 70.82 94.68 71.12 99.11 73.58 98.55 73.3 103.37 74.61 101.33 80.25"/><polygon class="cls-1" points="77.63 85.39 73.05 82.56 72.52 82.25 68.31 78.78 71.29 79.44 64.73 79.97 63.3 80.08 62.59 79.65 57.94 76.83 57.42 76.52 57.36 76.46 53.39 72.59 54.58 73.14 49.01 71.65 47.63 71.28 47.39 70.25 45.74 63.34 46.51 64.22 41.92 61.53 42.08 61.59 36.62 59.5 36.41 59.42 36.34 59.32 32.77 54.02 37.19 58.64 36.92 58.45 42.65 59.59 42.81 59.66 47.8 61.52 48.27 61.7 48.57 62.4 51.37 68.93 49.74 67.53 55.48 68.05 55.93 68.09 56.67 68.59 61.24 71.73 60.66 71.35 65.71 73.34 63.58 73.02 69.95 71.4 71.21 71.08 72.94 72.06 77.67 74.77 77.14 74.45 82.14 76.47 77.63 85.39"/></g></g></svg>