<svg xmlns="http://www.w3.org/2000/svg" viewBox="0 0 104.34 87.21"><defs><style>.cls-1{fill:none;}.cls-1,.cls-2,.cls-3{stroke:#fff;stroke-miterlimit:10;}.cls-2{fill:#fdfdfe;}.cls-3{fill:#fff;}</style></defs><g id="レイヤー_2" data-name="レイヤー 2"><g id="レイヤー_1-2" data-name="レイヤー 1"><path class="cls-1" d="M103.83,4.45c0-1.49-.14-2.8-.27-3.9C61,5.4,67.57,32.73,56.85,41.39c1.7.41,22.91,5.28,36-7.62,6.21-6.12,8.7-14.39,9.35-16.61A42.05,42.05,0,0,0,103.83,4.45Z"/><path class="cls-2" d="M9.87,4.45c0-1.49.14-2.8.26-3.9,42.56,4.85,36,32.18,46.72,40.84-1.71.41-22.91,5.28-36-7.62-6.21-6.12-8.7-14.39-9.34-16.61A42.05,42.05,0,0,1,9.87,4.45Z"/><path class="cls-1" d="M56.85,41.14C58.23,54.58,50.05,68,41.66,68"/><path class="cls-3" d="M17.25,86.61A15.18,15.18,0,0,1,.5,71.93c0-8.11,7.55-13.69,16.75-14.68C46.83,54.05,52.64,82.51,17.25,86.61Z"/></g></g></svg>