<svg xmlns="http://www.w3.org/2000/svg" viewBox="0 0 191.95 178.77"><defs><style>.cls-1{fill:#fff;}.cls-2{fill:none;stroke:#fff;stroke-miterlimit:10;}</style></defs><g id="レイヤー_2" data-name="レイヤー 2"><g id="レイヤー_3" data-name="レイヤー 3"><polygon class="cls-1" points="160.05 83.2 155.19 85.49 157.14 89.88 153.63 91.59 152.37 94.41 149.63 96.5 151.06 101.78 146.55 99.55 144.63 103.85 141.64 103.32 138.79 103.43 135.78 102.83 133.26 104.46 130.27 105.09 127.67 103.47 124.47 104.43 121.98 103.24 120.28 99.7 116.56 102.22 114.41 100.01 113.77 95.78 108.89 97.25 107.14 95.18 105.66 92.89 105.42 89.62 104.75 86.68 102.15 85.28 102.44 83.26 102.94 81.89 103.4 78.79 104.93 76.53 105.37 73.43 108.53 72.44 112.33 71.96 111.84 67.9 115.09 67.72 117.65 64.5 120.89 65.06 124.12 65.55 127.55 67.2 130.32 62.56 133.79 63.16 136.03 67.95 139.27 67.37 142.66 66.03 145.57 67.22 150.05 66.07 149.1 71.45 153.7 72.03 154.26 75.1 155.34 77.85 156.15 80.78 160.05 83.2"/><polygon class="cls-1" points="94.32 52.28 92.11 53.4 90.52 55.55 88.95 57.71 87.35 59.85 87.23 63.21 85.69 66.19 82.29 67.14 79.29 67.33 75.97 65.91 73.47 68.6 70.15 67.22 67.31 68.35 64.56 65.67 61.37 66.68 57.9 69.9 55.15 67.33 52.09 67.2 50.34 63.5 47.78 63.55 43.57 63.86 43.28 60.44 43.86 56.17 41.52 54.69 36.16 56.09 38.62 52.23 36.69 49.16 37.68 46.37 39 43.82 40.76 41.6 46.9 42.65 44.55 37.36 48.11 36.51 50.84 35.83 54.01 36.74 57 36.97 58.65 32.02 61.09 30.14 64.74 32.87 67.32 34.21 69.84 33.02 73.43 30.43 75.19 35.03 78.33 34.2 81.35 33.86 83.47 37.11 88.16 34.41 89.62 38.14 88.67 42.04 91.39 44.01 94.35 45.85 91.8 50.38 94.32 52.28"/><polygon class="cls-1" points="127.48 24.4 128.9 27.96 123.35 28.28 121.98 30.74 121.86 33.83 120.24 36.16 119.23 38.81 117.57 40.17 117.11 44.13 113.4 42.08 112.02 46.07 109.77 47.84 105.9 45.41 104.22 48.65 102.03 50.58 98.81 49.83 96.54 47.41 94.19 45.18 90.95 44.83 87.1 45.79 85.29 42.38 81.14 43.96 78.95 41.07 75.62 39.79 75.3 36.54 72.96 34.71 73.44 30.88 72.26 28.23 68.34 27.52 69.46 24.39 68.42 21.41 70.89 19.5 71.88 16.68 73.82 14.44 77.13 13.04 74.78 8.16 80.21 9.31 81.59 6.92 84.34 5.55 86.63 2.55 89.3 0.93 93.37 4.22 95.81 1.75 98.71 0 101.41 2.87 104.43 1.36 106.86 4.18 109.67 4.3 112.97 0.77 115.81 0.68 117.88 6.17 122.67 2.28 122.4 7 121.76 10.47 121.32 13.87 127.78 14.81 126.58 18.49 124.22 22.25 127.48 24.4"/><polygon class="cls-1" points="94.68 76.85 96.08 80.34 94.09 82.68 92.53 85.22 90.74 87.66 89.36 90.18 86.59 89.54 84.56 92.4 82.01 93.14 79.22 92.92 76.16 91.61 74.2 92.92 71.94 91.43 69.39 89.66 65.5 90.61 62.66 89.42 61.51 85.72 59.34 84.64 57.85 82.37 56.77 79.79 52.7 79.58 50.78 76.91 53.15 74.27 53.27 70.98 57.96 70.3 58.84 67.44 58.75 63.8 61.73 62.16 65.14 63.45 67.61 60.3 70.66 59.87 74.03 60.59 77.37 59.89 80.44 60.67 83.16 64.1 86.38 63.84 90.43 62.06 89.11 66.59 93.83 67.82 94.07 70.97 94.14 74.16 94.68 76.85"/><path class="cls-1" d="M96.82,171.45c-.62-6.09-.95-12.18-1.17-18.28-.13-3-.16-6.09-.25-9.13l-.08-9.14.08-9.14c.08-3.05.11-6.1.25-9.14.22-6.1.55-12.19,1.17-18.28.62,6.09,1,12.18,1.17,18.28.14,3,.17,6.09.25,9.14l.08,9.14L98.24,144c-.09,3-.12,6.09-.25,9.13C97.77,159.27,97.44,165.36,96.82,171.45Z"/><line class="cls-2" x1="96.82" y1="103.8" x2="91.98" y2="74.72"/><polygon class="cls-1" points="96.33 116.61 102.78 74.3 97.31 116.75 96.33 116.61"/><line class="cls-2" x1="96.32" y1="70.42" x2="97.32" y2="113.12"/><polygon class="cls-1" points="94.82 177.91 96.32 104.79 97.82 177.91 94.82 177.91"/><polygon class="cls-1" points="125.02 53.3 120.83 55.08 121.67 58.9 118.62 59.92 117.16 62.1 114.98 63.21 113 66.47 109.83 64.19 107.45 67.54 104.52 67.03 101.49 67.03 98.88 65.36 95.99 65.46 93.31 64.76 90.77 63.48 87.34 64.12 85.14 61.87 84.56 58.38 80.64 58.67 79.32 56 80.07 53.52 78.8 50.49 80.81 48.6 83 46.91 86.04 46.14 88.5 45.24 90.77 44.16 93.61 45.44 96.23 44.46 98.81 43 101.54 42.59 104.39 41.64 106.92 43.39 109.38 45.79 112.3 43.77 114.96 44.37 118.61 45.23 120 48.1 121.36 50.88 125.02 53.3"/><polygon class="cls-1" points="57.91 71.32 53.16 73.38 54.93 77.64 51.51 79.1 50.22 81.71 47.53 83.56 48.72 88.7 44.1 86.47 41.78 90.67 38.52 90.17 35.38 90.3 32.09 89.74 29.02 91.36 25.91 90.41 23.24 88.81 19.79 89.68 17 88.46 14.93 84.94 10.4 87.05 8.97 83.44 9.89 78.68 4.37 79.49 2.36 77.26 0.59 74.82 0 71.39 2.9 69.94 3.99 66.92 7.37 65.84 8.64 62.97 9.45 59.7 11.39 57.17 14.23 55.16 17.41 56.51 20.72 58.64 23.18 55.39 26.16 55.34 29.07 52.24 32.2 53.82 34.93 55.3 37.47 57.9 41.01 54.43 43.91 54.9 45.48 59.25 47.41 60.37 50.49 61.6 51.51 64.22 54.79 65.32 53.39 69.92 57.91 71.32"/><polygon class="cls-1" points="191.95 77.11 187.77 79.23 189.47 83.02 186.45 84.54 185.37 86.99 183.01 88.83 184.21 93.44 179.96 91.59 177.91 95.39 174.91 95.04 172.04 95.24 169.03 94.83 166.24 96.36 163.4 95.44 160.98 93.93 157.83 94.62 155.3 93.46 153.46 90.26 149.29 92.01 148.1 88.67 149.08 84.41 144.09 84.84 142.34 82.72 140.83 80.42 140.4 77.28 142.97 75.81 143.85 73.02 146.86 71.86 147.92 69.19 148.54 66.2 150.22 63.8 152.76 61.93 155.69 63.04 158.74 64.86 160.93 61.9 163.63 61.76 166.28 58.93 169.16 60.42 171.61 61.81 173.88 64.2 177.17 61.2 179.8 61.7 181.09 65.57 183.11 67.19 186.11 68.92 187.22 71.8 190 72.94 191.95 77.11"/><polygon class="cls-1" points="164.13 48.08 159.99 50.32 161.3 54.29 158.25 56.05 157 58.72 154.88 60.41 152.9 63.89 149.25 61.87 146.83 65.49 143.56 65.24 140.17 65.52 137.33 63.58 134.17 63.43 131.27 62.48 128.55 60.95 124.73 61.26 122.67 58.42 122.5 54.64 118.36 54.12 117.33 51.05 118.36 48.13 116.72 44.76 118.58 42.35 120.65 40.12 123.72 38.68 126.16 37.22 128.55 35.93 131.73 36.98 134.53 35.76 137.24 34.04 140.21 33.38 143.41 32.67 146.05 34.67 148.58 37.33 151.9 35.54 154.76 36.39 158.1 37.57 158.83 40.4 159.61 43.19 159.8 46.76 164.13 48.08"/><polygon class="cls-1" points="123.21 73.25 119.48 75.44 120.7 79.04 117.95 80.7 116.83 83.16 114.92 84.74 113.13 87.92 109.78 86.11 107.59 89.42 104.6 89.21 101.5 89.5 98.91 87.72 96.02 87.55 93.37 86.67 90.9 85.26 87.41 85.51 85.56 82.88 85.44 79.44 81.68 78.89 80.76 76.08 81.72 73.4 80.21 70.32 81.88 68.09 83.74 66.03 86.52 64.67 88.72 63.29 90.9 62.11 93.81 63.03 96.36 61.9 98.83 60.32 101.54 59.7 104.46 59.08 106.86 60.92 109.15 63.35 112.2 61.75 114.8 62.55 118.16 64.22 119.14 67.36 120.11 70.41 123.21 73.25"/><polygon class="cls-1" points="80.77 87.77 82.16 91.23 80.2 93.57 78.66 96.1 76.9 98.54 75.56 101.04 72.28 100.55 69.75 103.52 66.71 104.38 63.43 104.3 60.53 103.09 58.13 102.58 55.52 100.98 52.99 99.22 49.13 100.15 46.17 98.88 46.6 94.89 44.1 93.45 42.64 91.2 41.57 88.62 37.33 87.83 38.87 84.76 41.07 82.68 41.19 79.41 45.83 78.7 46.28 76.32 48.32 74.06 51.1 72.5 54.48 73.77 56.94 70.64 60.28 70.17 63.49 71.97 66.74 71.28 69.79 72.06 72.49 75.47 75.15 75.01 78.18 76.33 76.43 80.27 81.1 81.53 81.37 84.78 80.77 87.77"/><polygon class="cls-1" points="86.56 32.13 82.24 34.11 83.85 37.98 80.74 39.3 79.56 41.66 77.11 43.34 78.18 48.01 73.99 45.97 71.89 49.79 68.92 49.33 66.07 49.44 63.09 48.92 60.3 50.4 57.47 49.54 55.05 48.08 51.92 48.89 49.39 47.78 47.5 44.58 43.39 46.51 42.09 43.23 42.91 38.9 37.9 39.66 36.06 37.64 34.45 35.43 33.91 32.32 36.55 31.01 37.54 28.26 40.62 27.3 41.78 24.7 42.52 21.73 44.29 19.43 46.87 17.61 49.76 18.84 52.76 20.79 55 17.84 57.7 17.79 60.35 14.98 63.19 16.41 65.67 17.75 67.98 20.11 71.19 16.95 73.82 17.37 75.19 21.3 77.29 22.75 80.37 24.27 81.58 27.05 84.42 27.98 86.56 32.13"/><polygon class="cls-1" points="130.37 87.26 127.29 90.68 125.2 92.83 122.82 94.79 120.89 97.05 117.81 98.55 118.83 102.78 116.9 105.72 113.47 104.78 110.6 102.09 107.84 103.19 105.04 102.88 102.23 102.32 99.55 105.97 96.64 106.3 94.27 101.83 91 102.74 88.08 101.84 85.28 100.23 81.5 103.83 78.04 103.11 76.69 99.59 73.08 98.51 75.14 92.81 72.47 90.97 68.42 90.24 64.99 87.57 69.16 85.62 67.83 81.31 69.66 79.25 72.82 78.13 73.13 74.99 75.15 73.05 79.65 73.83 81.32 72.33 82.8 68.14 86.97 71.3 87.79 65.3 90.93 65.63 94.16 66.21 96.65 67.05 98.98 66.74 102.34 66.16 103.42 70.46 106.68 70.11 109.08 71.59 111.6 72.83 115.9 71.32 115.88 75.75 119.92 75.75 118.28 81.05 120.09 83.14 122.93 84.27 124.91 86.86 130.37 87.26"/><polygon class="cls-1" points="51.92 48.08 47.97 50.26 49.26 54.06 46.35 55.79 45.16 58.37 43.15 60.02 41.26 63.37 37.75 61.45 35.43 64.94 32.29 64.71 29.02 65 26.3 63.13 23.26 62.97 20.48 62.04 17.87 60.56 14.2 60.84 12.24 58.08 12.11 54.45 8.15 53.9 7.18 50.94 8.18 48.13 6.59 44.89 8.36 42.56 10.33 40.39 13.26 38.97 15.58 37.54 17.87 36.3 20.93 37.28 23.61 36.09 26.21 34.43 29.07 33.78 32.14 33.12 34.67 35.05 37.09 37.61 40.29 35.92 43.03 36.75 46.22 37.93 46.9 40.65 47.63 43.35 47.79 46.78 51.92 48.08"/><polygon class="cls-1" points="153.13 25.21 149.15 27.23 150.32 31 147.4 32.54 146.15 35 144.11 36.51 142.21 39.79 138.82 37.79 136.5 41.21 133.44 40.9 130.27 41.11 127.6 39.31 124.63 39.22 121.89 38.37 119.32 36.96 115.74 37.33 113.74 34.72 113.5 31.16 109.57 30.82 108.53 27.96 109.46 25.26 107.96 22.09 109.77 19.89 111.78 17.86 114.72 16.62 117.06 15.33 119.32 14.15 122.3 15.2 124.94 14.09 127.52 12.49 130.31 11.92 133.31 11.19 135.81 13.05 138.22 15.54 141.32 13.77 144.02 14.53 147.2 15.51 147.95 18.13 148.75 20.73 149 24.07 153.13 25.21"/><polygon class="cls-1" points="148.17 67.75 143.72 68.73 142.85 72.43 139.58 72.78 137.29 74.5 134.35 75.31 133.53 79.1 129.84 78.88 127.89 82.99 124.73 80.35 122.39 78.4 120.32 76.03 117.4 74.96 114.86 73.29 112.61 71.2 109.35 70.62 106.4 67.76 110.5 66.88 111.8 63.31 114.82 62.65 118.7 63.46 119.57 59.13 122.08 57.6 124.72 56.26 127.88 55.86 129.72 58.09 132.47 58.91 134.09 61.52 136.76 62.48 139.66 63.09 142.06 64.47 144.81 64.98 148.17 67.75"/><polygon class="cls-1" points="95.3 177.67 96.8 104.55 98.3 177.67 95.3 177.67"/><polygon class="cls-1" points="97.62 168.6 99.12 95.49 100.62 168.6 97.62 168.6"/><polygon class="cls-1" points="96.82 177.67 98.32 104.55 99.82 177.67 96.82 177.67"/><polygon class="cls-1" points="98.3 178.77 99.8 105.66 101.3 178.77 98.3 178.77"/><polygon class="cls-1" points="97.12 125.52 98.62 52.4 100.12 125.52 97.12 125.52"/><polygon class="cls-1" points="95.97 178.77 97.47 105.66 98.97 178.77 95.97 178.77"/><polygon class="cls-1" points="93.82 178.77 95.32 105.66 96.82 178.77 93.82 178.77"/><polygon class="cls-1" points="94.32 162.07 95.82 88.96 97.32 162.07 94.32 162.07"/><polygon class="cls-1" points="180.61 52.38 178.67 54.1 178.4 57.16 175.78 58.68 176.4 62.33 172.49 62.2 170.37 63.74 167.37 64.52 164.91 67.06 161.73 67.26 158.95 69.33 156.1 66.23 153.18 67.72 150.44 65.93 147.56 66.75 144.74 66.44 141.61 67.78 141.74 64.66 140.11 62.41 138.09 60.31 137.41 57.72 137.75 54.75 138.12 52.52 138.59 50.11 137.16 46.15 140.88 44.56 143.29 42.37 142.45 38.49 145.45 38.66 147.97 37.26 151.01 38.62 153.29 35.97 155.86 34.83 158.82 35.88 161.41 36.91 164.4 35.79 167.02 36.83 169.95 36.05 172.11 39.95 175.06 38.53 177.67 40.65 176.78 44.3 179.09 46.62 180.97 49.21 180.61 52.38"/><polygon class="cls-1" points="49.91 87.32 49.65 90.68 47.94 92.88 45.08 94.66 43.66 96.97 42.28 99.29 43.47 103.02 39.94 101.78 37.33 103.45 34.13 101.81 31.56 103.71 28.72 104.12 26 106.54 23.18 105.24 20.7 103.57 18.18 102.03 14.93 103.53 12.87 100.04 9.62 101.52 9.47 98.16 8.28 95.54 5.76 93.82 3.02 92.25 3.13 88.72 0.36 87.44 2.76 86.44 4.42 84.33 6.68 82.85 7.26 79.66 8.57 77.2 10.48 74.83 14.68 76.26 17.5 74.86 20.74 74.6 23.52 73.07 26.08 71.26 28.33 73.43 31.84 69.42 34.18 71.86 36.47 74.55 39.77 71.68 43.2 72.51 44.6 75.95 43.62 79.7 44.33 82.67 46.85 84.92 49.91 87.32"/><polygon class="cls-1" points="140.06 63.26 141.13 66.36 137.81 67.86 137.01 70.46 138.45 74.03 133.31 74.75 134.9 79.23 131.35 77.16 128.54 76.42 125.73 75.98 122.92 76.29 120.1 79.59 117.16 80.35 114.66 77.66 111.83 79.16 109.29 77.93 106.71 77.11 104.33 74.38 100.55 77.62 98.91 74.26 98.67 70.8 97.21 68.08 94.41 66.18 92.43 63.15 95.72 61.29 98.67 59.88 99.23 56.61 102.23 55.24 102.48 51.77 104.54 49.75 106.5 47.46 109.36 46.91 112.66 47.2 113.95 43.61 117.28 45.23 120.36 44.09 121.32 48.31 123.78 49.63 127.07 49.35 129.42 50.91 133.53 50.1 134.43 53.56 134.54 57.01 136.06 59.43 140.12 60.16 140.06 63.26"/><polygon class="cls-1" points="180.4 89.22 178.46 92.97 175.26 94.05 171.59 94.78 172.01 98.54 169.15 99.88 168.93 103.93 165.66 104.44 162.84 103.11 159.97 101.44 157.49 103.38 154.59 101.47 152.18 103.15 149.37 105.57 146.92 102.65 144.24 102.24 141.41 103.67 138.93 100.97 136.68 101.76 134.41 100.5 132.03 98.69 129.1 97.33 127.42 94.97 125.08 93.12 126.79 89.21 126.22 86.27 130.5 85.51 131.85 82.81 129.84 77.88 131.57 75.43 134.01 72.07 138.07 75.19 140.89 74.96 143.73 76.33 146.53 74.45 149.37 75.38 152.18 74.24 155.48 73.47 158.09 77.21 161.94 72.98 164.82 75.04 167.82 76.47 171.16 77.31 170.45 81.41 174.71 81.45 174.45 85.19 176.82 86.55 180.4 89.22"/></g></g></svg>